<svg version="1.1" xmlns="http://www.w3.org/2000/svg" viewBox="0 0 580 916" width="580" height="916">
  <!-- svg-source:excalidraw -->
  
  <defs>
    <style class="style-fonts">
      @font-face {
        font-family: "Virgil";
        src: url("https://excalidraw.com/Virgil.woff2");
      }
      @font-face {
        font-family: "Cascadia";
        src: url("https://excalidraw.com/Cascadia.woff2");
      }
      @font-face {
        font-family: "Assistant";
        src: url("https://excalidraw.com/Assistant-Regular.woff2");
      }
    </style>
    
  </defs>
  <g stroke-linecap="round"><g transform="translate(206.62222222222226 392.6666666666667) rotate(0 0 -16.333333333333343)" fill-rule="evenodd"><path d="M0 0 L-27.22 -16.33 L0 -32.67 L27.22 -16.33 L0 0" stroke="none" stroke-width="0" fill="black" fill-rule="evenodd"></path><path d="M0 0 C-10.86 -6.51, -21.72 -13.03, -27.22 -16.33 M0 0 C-8.81 -5.29, -17.62 -10.57, -27.22 -16.33 M-27.22 -16.33 C-18.67 -21.46, -10.12 -26.59, 0 -32.67 M-27.22 -16.33 C-20.36 -20.45, -13.5 -24.57, 0 -32.67 M0 -32.67 C9.69 -26.85, 19.38 -21.04, 27.22 -16.33 M0 -32.67 C9.59 -26.91, 19.18 -21.16, 27.22 -16.33 M27.22 -16.33 C18.2 -10.92, 9.18 -5.51, 0 0 M27.22 -16.33 C19.31 -11.59, 11.4 -6.84, 0 0 M0 0 C0 0, 0 0, 0 0 M0 0 C0 0, 0 0, 0 0" stroke="transparent" stroke-width="2" fill="none"></path></g></g><mask></mask><g stroke-linecap="round"><g transform="translate(206.62222222222226 404.33333333333337) rotate(0 0 -10.114163107994557)" fill-rule="evenodd"><path d="M0 0 L-27.22 -16.33 L-20.75 -20.23 L0 -7.78 L20.74 -20.23 L27.22 -16.33 L0 0" stroke="none" stroke-width="0" fill="#1e1e1e" fill-rule="evenodd"></path><path d="M0 0 C-5.79 -3.47, -11.58 -6.95, -27.22 -16.33 M0 0 C-9.07 -5.44, -18.14 -10.88, -27.22 -16.33 M-27.22 -16.33 C-25.48 -17.38, -23.74 -18.43, -20.75 -20.23 M-27.22 -16.33 C-25.34 -17.47, -23.46 -18.6, -20.75 -20.23 M-20.75 -20.23 C-13.56 -15.91, -6.37 -11.6, 0 -7.78 M-20.75 -20.23 C-15.42 -17.03, -10.09 -13.83, 0 -7.78 M0 -7.78 C7.8 -12.46, 15.59 -17.14, 20.74 -20.23 M0 -7.78 C4.69 -10.59, 9.38 -13.41, 20.74 -20.23 M20.74 -20.23 C22.93 -18.91, 25.11 -17.6, 27.22 -16.33 M20.74 -20.23 C22.8 -18.99, 24.85 -17.76, 27.22 -16.33 M27.22 -16.33 C17.25 -10.35, 7.28 -4.37, 0 0 M27.22 -16.33 C17.29 -10.37, 7.35 -4.41, 0 0 M0 0 C0 0, 0 0, 0 0 M0 0 C0 0, 0 0, 0 0" stroke="transparent" stroke-width="2" fill="none"></path></g></g><mask></mask><g stroke-linecap="round"><g transform="translate(206.62222222222226 415.9999999999998) rotate(0 0 -10.113691296450412)" fill-rule="evenodd"><path d="M0 0 L-27.22 -16.33 L-20.74 -20.23 L0 -7.78 L20.74 -20.23 L27.22 -16.33 L0 0" stroke="none" stroke-width="0" fill="black" fill-rule="evenodd"></path><path d="M0 0 C-5.51 -3.31, -11.02 -6.61, -27.22 -16.33 M0 0 C-5.91 -3.55, -11.83 -7.1, -27.22 -16.33 M-27.22 -16.33 C-25.74 -17.22, -24.26 -18.11, -20.74 -20.23 M-27.22 -16.33 C-24.72 -17.83, -22.22 -19.34, -20.74 -20.23 M-20.74 -20.23 C-13.97 -16.16, -7.19 -12.1, 0 -7.78 M-20.74 -20.23 C-15.29 -16.95, -9.84 -13.68, 0 -7.78 M0 -7.78 C7.47 -12.26, 14.93 -16.74, 20.74 -20.23 M0 -7.78 C5.52 -11.09, 11.03 -14.4, 20.74 -20.23 M20.74 -20.23 C22.57 -19.12, 24.41 -18.02, 27.22 -16.33 M20.74 -20.23 C23.28 -18.7, 25.82 -17.18, 27.22 -16.33 M27.22 -16.33 C20.41 -12.24, 13.59 -8.15, 0 0 M27.22 -16.33 C21.51 -12.9, 15.79 -9.48, 0 0 M0 0 C0 0, 0 0, 0 0 M0 0 C0 0, 0 0, 0 0" stroke="transparent" stroke-width="2" fill="none"></path></g></g><mask></mask><g transform="translate(245.19999999999982 370.4999999999998) rotate(0 82.03125 16.80000000000001)"><text x="0" y="27.0375" font-family="Cascadia, Segoe UI Emoji" font-size="28px" fill="#1e1e1e" text-anchor="start" style="white-space: pre;" direction="ltr" dominant-baseline="alphabetic">Controller</text></g><g stroke-linecap="round" transform="translate(10 318) rotate(0 280 70)"><path d="M32 0 C147.12 0, 262.23 0, 528 0 M32 0 C211.85 0, 391.7 0, 528 0 M528 0 C549.33 0, 560 10.67, 560 32 M528 0 C549.33 0, 560 10.67, 560 32 M560 32 C560 56.12, 560 80.24, 560 108 M560 32 C560 60.43, 560 88.86, 560 108 M560 108 C560 129.33, 549.33 140, 528 140 M560 108 C560 129.33, 549.33 140, 528 140 M528 140 C414.69 140, 301.37 140, 32 140 M528 140 C411.72 140, 295.45 140, 32 140 M32 140 C10.67 140, 0 129.33, 0 108 M32 140 C10.67 140, 0 129.33, 0 108 M0 108 C0 88.64, 0 69.28, 0 32 M0 108 C0 88.88, 0 69.76, 0 32 M0 32 C0 10.67, 10.67 0, 32 0 M0 32 C0 10.67, 10.67 0, 32 0" stroke="#000000" stroke-width="2" fill="none"></path></g><g stroke-linecap="round"><g transform="translate(206.62222222222226 616.6666666666667) rotate(0 0 -16.333333333333314)" fill-rule="evenodd"><path d="M0 0 L-27.22 -16.33 L0 -32.67 L27.22 -16.33 L0 0" stroke="none" stroke-width="0" fill="black" fill-rule="evenodd"></path><path d="M0 0 C-6.65 -3.99, -13.3 -7.98, -27.22 -16.33 M0 0 C-7.87 -4.72, -15.74 -9.44, -27.22 -16.33 M-27.22 -16.33 C-21.32 -19.87, -15.42 -23.41, 0 -32.67 M-27.22 -16.33 C-19.87 -20.74, -12.52 -25.15, 0 -32.67 M0 -32.67 C8.12 -27.79, 16.24 -22.92, 27.22 -16.33 M0 -32.67 C7.31 -28.28, 14.62 -23.9, 27.22 -16.33 M27.22 -16.33 C20.07 -12.04, 12.92 -7.75, 0 0 M27.22 -16.33 C17.36 -10.41, 7.49 -4.5, 0 0 M0 0 C0 0, 0 0, 0 0 M0 0 C0 0, 0 0, 0 0" stroke="transparent" stroke-width="2" fill="none"></path></g></g><mask></mask><g stroke-linecap="round"><g transform="translate(206.62222222222226 628.333333333333) rotate(0 0 -10.114163107994557)" fill-rule="evenodd"><path d="M0 0 L-27.22 -16.33 L-20.75 -20.23 L0 -7.78 L20.74 -20.23 L27.22 -16.33 L0 0" stroke="none" stroke-width="0" fill="#1e1e1e" fill-rule="evenodd"></path><path d="M0 0 C-10.57 -6.34, -21.14 -12.69, -27.22 -16.33 M0 0 C-6.55 -3.93, -13.09 -7.86, -27.22 -16.33 M-27.22 -16.33 C-24.64 -17.88, -22.06 -19.44, -20.75 -20.23 M-27.22 -16.33 C-25.54 -17.35, -23.85 -18.36, -20.75 -20.23 M-20.75 -20.23 C-15.78 -17.25, -10.81 -14.26, 0 -7.78 M-20.75 -20.23 C-16.55 -17.71, -12.35 -15.19, 0 -7.78 M0 -7.78 C5.53 -11.1, 11.07 -14.42, 20.74 -20.23 M0 -7.78 C6.58 -11.73, 13.16 -15.68, 20.74 -20.23 M20.74 -20.23 C22.54 -19.15, 24.33 -18.07, 27.22 -16.33 M20.74 -20.23 C22.58 -19.12, 24.43 -18.01, 27.22 -16.33 M27.22 -16.33 C21.33 -12.8, 15.45 -9.27, 0 0 M27.22 -16.33 C21.61 -12.97, 16 -9.6, 0 0 M0 0 C0 0, 0 0, 0 0 M0 0 C0 0, 0 0, 0 0" stroke="transparent" stroke-width="2" fill="none"></path></g></g><mask></mask><g stroke-linecap="round"><g transform="translate(206.62222222222226 639.9999999999999) rotate(0 0 -10.113691296450384)" fill-rule="evenodd"><path d="M0 0 L-27.22 -16.33 L-20.74 -20.23 L0 -7.78 L20.74 -20.23 L27.22 -16.33 L0 0" stroke="none" stroke-width="0" fill="black" fill-rule="evenodd"></path><path d="M0 0 C-6.96 -4.17, -13.91 -8.35, -27.22 -16.33 M0 0 C-6.45 -3.87, -12.9 -7.74, -27.22 -16.33 M-27.22 -16.33 C-25.31 -17.48, -23.4 -18.63, -20.74 -20.23 M-27.22 -16.33 C-25.01 -17.66, -22.81 -18.99, -20.74 -20.23 M-20.74 -20.23 C-13.71 -16.01, -6.68 -11.79, 0 -7.78 M-20.74 -20.23 C-13.64 -15.96, -6.53 -11.7, 0 -7.78 M0 -7.78 C6.85 -11.89, 13.71 -16.01, 20.74 -20.23 M0 -7.78 C7.43 -12.24, 14.86 -16.7, 20.74 -20.23 M20.74 -20.23 C22.67 -19.07, 24.6 -17.91, 27.22 -16.33 M20.74 -20.23 C23.26 -18.71, 25.79 -17.2, 27.22 -16.33 M27.22 -16.33 C20.13 -12.08, 13.03 -7.82, 0 0 M27.22 -16.33 C18.6 -11.16, 9.98 -5.99, 0 0 M0 0 C0 0, 0 0, 0 0 M0 0 C0 0, 0 0, 0 0" stroke="transparent" stroke-width="2" fill="none"></path></g></g><mask></mask><g transform="translate(245.19999999999982 594.4999999999998) rotate(0 57.421875 16.80000000000001)"><text x="0" y="27.0375" font-family="Cascadia, Segoe UI Emoji" font-size="28px" fill="#1e1e1e" text-anchor="start" style="white-space: pre;" direction="ltr" dominant-baseline="alphabetic">Service</text></g><g stroke-linecap="round" transform="translate(10 542) rotate(0 280 70)"><path d="M32 0 C175.81 0, 319.61 0, 528 0 M32 0 C191.56 0, 351.12 0, 528 0 M528 0 C549.33 0, 560 10.67, 560 32 M528 0 C549.33 0, 560 10.67, 560 32 M560 32 C560 50.2, 560 68.41, 560 108 M560 32 C560 47.37, 560 62.74, 560 108 M560 108 C560 129.33, 549.33 140, 528 140 M560 108 C560 129.33, 549.33 140, 528 140 M528 140 C363.12 140, 198.25 140, 32 140 M528 140 C409.35 140, 290.7 140, 32 140 M32 140 C10.67 140, 0 129.33, 0 108 M32 140 C10.67 140, 0 129.33, 0 108 M0 108 C0 88.19, 0 68.39, 0 32 M0 108 C0 83.93, 0 59.87, 0 32 M0 32 C0 10.67, 10.67 0, 32 0 M0 32 C0 10.67, 10.67 0, 32 0" stroke="#000000" stroke-width="2" fill="none"></path></g><g stroke-linecap="round"><g transform="translate(206.62222222222226 840.6666666666667) rotate(0 0 -16.333333333333314)" fill-rule="evenodd"><path d="M0 0 L-27.22 -16.33 L0 -32.67 L27.22 -16.33 L0 0" stroke="none" stroke-width="0" fill="black" fill-rule="evenodd"></path><path d="M0 0 C-9.01 -5.41, -18.02 -10.81, -27.22 -16.33 M0 0 C-7.43 -4.46, -14.85 -8.91, -27.22 -16.33 M-27.22 -16.33 C-17.9 -21.93, -8.57 -27.52, 0 -32.67 M-27.22 -16.33 C-20.77 -20.21, -14.31 -24.08, 0 -32.67 M0 -32.67 C6.61 -28.7, 13.21 -24.74, 27.22 -16.33 M0 -32.67 C6.96 -28.49, 13.91 -24.32, 27.22 -16.33 M27.22 -16.33 C17.71 -10.62, 8.19 -4.92, 0 0 M27.22 -16.33 C21.51 -12.91, 15.8 -9.48, 0 0 M0 0 C0 0, 0 0, 0 0 M0 0 C0 0, 0 0, 0 0" stroke="transparent" stroke-width="2" fill="none"></path></g></g><mask></mask><g stroke-linecap="round"><g transform="translate(206.62222222222226 852.333333333333) rotate(0 0 -10.114163107994557)" fill-rule="evenodd"><path d="M0 0 L-27.22 -16.33 L-20.75 -20.23 L0 -7.78 L20.74 -20.23 L27.22 -16.33 L0 0" stroke="none" stroke-width="0" fill="#1e1e1e" fill-rule="evenodd"></path><path d="M0 0 C-9.1 -5.46, -18.21 -10.92, -27.22 -16.33 M0 0 C-6.68 -4.01, -13.37 -8.02, -27.22 -16.33 M-27.22 -16.33 C-24.67 -17.87, -22.11 -19.4, -20.75 -20.23 M-27.22 -16.33 C-25.73 -17.23, -24.24 -18.13, -20.75 -20.23 M-20.75 -20.23 C-12.82 -15.47, -4.89 -10.71, 0 -7.78 M-20.75 -20.23 C-14.78 -16.65, -8.81 -13.06, 0 -7.78 M0 -7.78 C5.98 -11.37, 11.97 -14.96, 20.74 -20.23 M0 -7.78 C4.66 -10.58, 9.32 -13.37, 20.74 -20.23 M20.74 -20.23 C22.25 -19.32, 23.77 -18.41, 27.22 -16.33 M20.74 -20.23 C22.66 -19.07, 24.58 -17.92, 27.22 -16.33 M27.22 -16.33 C20.14 -12.09, 13.06 -7.84, 0 0 M27.22 -16.33 C18.71 -11.23, 10.21 -6.12, 0 0 M0 0 C0 0, 0 0, 0 0 M0 0 C0 0, 0 0, 0 0" stroke="transparent" stroke-width="2" fill="none"></path></g></g><mask></mask><g stroke-linecap="round"><g transform="translate(206.62222222222226 863.9999999999999) rotate(0 0 -10.113691296450384)" fill-rule="evenodd"><path d="M0 0 L-27.22 -16.33 L-20.74 -20.23 L0 -7.78 L20.74 -20.23 L27.22 -16.33 L0 0" stroke="none" stroke-width="0" fill="black" fill-rule="evenodd"></path><path d="M0 0 C-10.18 -6.11, -20.36 -12.22, -27.22 -16.33 M0 0 C-7.05 -4.23, -14.11 -8.46, -27.22 -16.33 M-27.22 -16.33 C-25.81 -17.18, -24.39 -18.03, -20.74 -20.23 M-27.22 -16.33 C-24.84 -17.76, -22.47 -19.19, -20.74 -20.23 M-20.74 -20.23 C-16.58 -17.73, -12.42 -15.23, 0 -7.78 M-20.74 -20.23 C-14.01 -16.19, -7.28 -12.15, 0 -7.78 M0 -7.78 C5.74 -11.22, 11.48 -14.67, 20.74 -20.23 M0 -7.78 C5.59 -11.13, 11.17 -14.49, 20.74 -20.23 M20.74 -20.23 C23.26 -18.71, 25.78 -17.2, 27.22 -16.33 M20.74 -20.23 C22.24 -19.32, 23.74 -18.42, 27.22 -16.33 M27.22 -16.33 C20.17 -12.1, 13.12 -7.87, 0 0 M27.22 -16.33 C20.69 -12.41, 14.16 -8.49, 0 0 M0 0 C0 0, 0 0, 0 0 M0 0 C0 0, 0 0, 0 0" stroke="transparent" stroke-width="2" fill="none"></path></g></g><mask></mask><g transform="translate(245.19999999999982 818.4999999999999) rotate(0 82.03125 16.80000000000001)"><text x="0" y="27.0375" font-family="Cascadia, Segoe UI Emoji" font-size="28px" fill="#1e1e1e" text-anchor="start" style="white-space: pre;" direction="ltr" dominant-baseline="alphabetic">Repository</text></g><g stroke-linecap="round" transform="translate(10 766) rotate(0 280 70)"><path d="M32 0 C208.52 0, 385.04 0, 528 0 M32 0 C141.17 0, 250.33 0, 528 0 M528 0 C549.33 0, 560 10.67, 560 32 M528 0 C549.33 0, 560 10.67, 560 32 M560 32 C560 61.05, 560 90.09, 560 108 M560 32 C560 53.87, 560 75.73, 560 108 M560 108 C560 129.33, 549.33 140, 528 140 M560 108 C560 129.33, 549.33 140, 528 140 M528 140 C368.87 140, 209.74 140, 32 140 M528 140 C397.64 140, 267.28 140, 32 140 M32 140 C10.67 140, 0 129.33, 0 108 M32 140 C10.67 140, 0 129.33, 0 108 M0 108 C0 88.31, 0 68.63, 0 32 M0 108 C0 89.76, 0 71.52, 0 32 M0 32 C0 10.67, 10.67 0, 32 0 M0 32 C0 10.67, 10.67 0, 32 0" stroke="#000000" stroke-width="2" fill="none"></path></g><g stroke-linecap="round"><g transform="translate(150 458) rotate(0 0 42)"><path d="M0 0 C0 14, 0 70, 0 84 M0 0 C0 14, 0 70, 0 84" stroke="#000000" stroke-width="2" fill="none"></path></g><g transform="translate(150 458) rotate(0 0 42)"><path d="M0 84 L-6.34 70.41 L6.34 70.41 L0 84" stroke="none" stroke-width="0" fill="#000000" fill-rule="evenodd"></path><path d="M0 84 C-2.02 79.68, -4.03 75.36, -6.34 70.41 M0 84 C-2.45 78.75, -4.89 73.5, -6.34 70.41 M-6.34 70.41 C-3.44 70.41, -0.54 70.41, 6.34 70.41 M-6.34 70.41 C-2.25 70.41, 1.84 70.41, 6.34 70.41 M6.34 70.41 C4.09 75.23, 1.84 80.05, 0 84 M6.34 70.41 C3.99 75.45, 1.63 80.5, 0 84 M0 84 C0 84, 0 84, 0 84 M0 84 C0 84, 0 84, 0 84" stroke="#000000" stroke-width="2" fill="none"></path></g></g><mask></mask><g stroke-linecap="round"><g transform="translate(150 682) rotate(0 0 42)"><path d="M0 0 C0 14, 0 70, 0 84 M0 0 C0 14, 0 70, 0 84" stroke="#000000" stroke-width="2" fill="none"></path></g><g transform="translate(150 682) rotate(0 0 42)"><path d="M0 84 L-6.34 70.41 L6.34 70.41 L0 84" stroke="none" stroke-width="0" fill="#000000" fill-rule="evenodd"></path><path d="M0 84 C-1.63 80.51, -3.25 77.02, -6.34 70.41 M0 84 C-1.37 81.06, -2.74 78.13, -6.34 70.41 M-6.34 70.41 C-3.67 70.41, -1.01 70.41, 6.34 70.41 M-6.34 70.41 C-1.64 70.41, 3.06 70.41, 6.34 70.41 M6.34 70.41 C4.13 75.15, 1.92 79.89, 0 84 M6.34 70.41 C3.99 75.44, 1.64 80.48, 0 84 M0 84 C0 84, 0 84, 0 84 M0 84 C0 84, 0 84, 0 84" stroke="#000000" stroke-width="2" fill="none"></path></g></g><mask></mask><g stroke-linecap="round"><g transform="translate(430 766) rotate(0 0 -42)"><path d="M0 0 C0 -14, 0 -70, 0 -84 M0 0 C0 -14, 0 -70, 0 -84" stroke="#000000" stroke-width="2" fill="none"></path></g><g transform="translate(430 766) rotate(0 0 -42)"><path d="M0 -84 L6.34 -70.41 L-6.34 -70.41 L0 -84" stroke="none" stroke-width="0" fill="#000000" fill-rule="evenodd"></path><path d="M0 -84 C2.45 -78.75, 4.89 -73.51, 6.34 -70.41 M0 -84 C2.51 -78.62, 5.02 -73.24, 6.34 -70.41 M6.34 -70.41 C3.38 -70.41, 0.43 -70.41, -6.34 -70.41 M6.34 -70.41 C1.42 -70.41, -3.5 -70.41, -6.34 -70.41 M-6.34 -70.41 C-3.89 -75.67, -1.43 -80.93, 0 -84 M-6.34 -70.41 C-4 -75.41, -1.67 -80.42, 0 -84 M0 -84 C0 -84, 0 -84, 0 -84 M0 -84 C0 -84, 0 -84, 0 -84" stroke="#000000" stroke-width="2" fill="none"></path></g></g><mask></mask><g stroke-linecap="round"><g transform="translate(430 542) rotate(0 0 -42)"><path d="M0 0 C0 -14, 0 -70, 0 -84 M0 0 C0 -14, 0 -70, 0 -84" stroke="#000000" stroke-width="2" fill="none"></path></g><g transform="translate(430 542) rotate(0 0 -42)"><path d="M0 -84 L6.34 -70.41 L-6.34 -70.41 L0 -84" stroke="none" stroke-width="0" fill="#000000" fill-rule="evenodd"></path><path d="M0 -84 C1.92 -79.89, 3.84 -75.77, 6.34 -70.41 M0 -84 C1.8 -80.14, 3.6 -76.27, 6.34 -70.41 M6.34 -70.41 C3.09 -70.41, -0.16 -70.41, -6.34 -70.41 M6.34 -70.41 C2.57 -70.41, -1.2 -70.41, -6.34 -70.41 M-6.34 -70.41 C-4.72 -73.88, -3.09 -77.36, 0 -84 M-6.34 -70.41 C-4.41 -74.55, -2.47 -78.7, 0 -84 M0 -84 C0 -84, 0 -84, 0 -84 M0 -84 C0 -84, 0 -84, 0 -84" stroke="#000000" stroke-width="2" fill="none"></path></g></g><mask></mask><g stroke-linecap="round" transform="translate(262 10) rotate(0 28 28)"><path d="M56 28 C56 29.62, 55.86 31.27, 55.57 32.86 C55.29 34.46, 54.87 36.05, 54.31 37.58 C53.76 39.1, 53.06 40.6, 52.25 42 C51.44 43.4, 50.49 44.76, 49.45 46 C48.41 47.24, 47.24 48.41, 46 49.45 C44.76 50.49, 43.4 51.44, 42 52.25 C40.6 53.06, 39.1 53.76, 37.58 54.31 C36.05 54.87, 34.46 55.29, 32.86 55.57 C31.27 55.86, 29.62 56, 28 56 C26.38 56, 24.73 55.86, 23.14 55.57 C21.54 55.29, 19.95 54.87, 18.42 54.31 C16.9 53.76, 15.4 53.06, 14 52.25 C12.6 51.44, 11.24 50.49, 10 49.45 C8.76 48.41, 7.59 47.24, 6.55 46 C5.51 44.76, 4.56 43.4, 3.75 42 C2.94 40.6, 2.24 39.1, 1.69 37.58 C1.13 36.05, 0.71 34.46, 0.43 32.86 C0.14 31.27, 0 29.62, 0 28 C0 26.38, 0.14 24.73, 0.43 23.14 C0.71 21.54, 1.13 19.95, 1.69 18.42 C2.24 16.9, 2.94 15.4, 3.75 14 C4.56 12.6, 5.51 11.24, 6.55 10 C7.59 8.76, 8.76 7.59, 10 6.55 C11.24 5.51, 12.6 4.56, 14 3.75 C15.4 2.94, 16.9 2.24, 18.42 1.69 C19.95 1.13, 21.54 0.71, 23.14 0.43 C24.73 0.14, 26.38 0, 28 0 C29.62 0, 31.27 0.14, 32.86 0.43 C34.46 0.71, 36.05 1.13, 37.58 1.69 C39.1 2.24, 40.6 2.94, 42 3.75 C43.4 4.56, 44.76 5.51, 46 6.55 C47.24 7.59, 48.41 8.76, 49.45 10 C50.49 11.24, 51.44 12.6, 52.25 14 C53.06 15.4, 53.76 16.9, 54.31 18.42 C54.87 19.95, 55.29 21.54, 55.57 23.14 C55.86 24.73, 55.93 27.19, 56 28 C56.07 28.81, 56.07 27.19, 56 28" stroke="#1e1e1e" stroke-width="2" fill="none"></path></g><g stroke-linecap="round"><g transform="translate(234 94) rotate(0 56 0)"><path d="M0 0 C39.49 0, 78.99 0, 112 0 M0 0 C42.71 0, 85.43 0, 112 0" stroke="#1e1e1e" stroke-width="2" fill="none"></path></g></g><mask></mask><g stroke-linecap="round"><g transform="translate(290 66) rotate(0 0 56)"><path d="M0 0 C0 26.98, 0 53.96, 0 112 M0 0 C0 37.35, 0 74.7, 0 112" stroke="#1e1e1e" stroke-width="2" fill="none"></path></g></g><mask></mask><g stroke-linecap="round"><g transform="translate(290 178) rotate(0 -28 28)"><path d="M0 0 C-17.66 17.66, -35.32 35.32, -56 56 M0 0 C-18.09 18.09, -36.19 36.19, -56 56" stroke="#1e1e1e" stroke-width="2" fill="none"></path></g></g><mask></mask><g stroke-linecap="round"><g transform="translate(290 178) rotate(0 28 28)"><path d="M0 0 C17.6 17.6, 35.2 35.2, 56 56 M0 0 C20.67 20.67, 41.34 41.34, 56 56" stroke="#1e1e1e" stroke-width="2" fill="none"></path></g></g><mask></mask><g transform="translate(258.724026489258 238.20000000000005) rotate(0 31.275973510742233 17.5)"><text x="31.275973510742187" y="24.528" font-family="Virgil, Segoe UI Emoji" font-size="28px" fill="#1e1e1e" text-anchor="middle" style="white-space: pre;" direction="ltr" dominant-baseline="alphabetic">User</text></g><g transform="translate(28.199999999999818 239.04000000000008) rotate(0 57.421875 16.80000000000001)"><text x="0" y="27.0375" font-family="Cascadia, Segoe UI Emoji" font-size="28px" fill="#1e1e1e" text-anchor="start" style="white-space: pre;" direction="ltr" dominant-baseline="alphabetic">Request</text></g><g transform="translate(435.60000000000036 278.24) rotate(0 65.625 16.80000000000001)"><text x="0" y="27.0375" font-family="Cascadia, Segoe UI Emoji" font-size="28px" fill="#1e1e1e" text-anchor="start" style="white-space: pre;" direction="ltr" dominant-baseline="alphabetic">Response</text></g><g stroke-linecap="round"><g transform="translate(206 234) rotate(0 -28 42)"><path d="M0 0 C-14.35 21.53, -28.7 43.05, -56 84 M0 0 C-13.46 20.19, -26.92 40.38, -56 84" stroke="#1e1e1e" stroke-width="2" fill="none"></path></g><g transform="translate(206 234) rotate(0 -28 42)"><path d="M-56 84 L-53.73 69.17 L-43.18 76.2 L-56 84" stroke="none" stroke-width="0" fill="#1e1e1e" fill-rule="evenodd"></path><path d="M-56 84 C-55.42 80.2, -54.84 76.4, -53.73 69.17 M-56 84 C-55.46 80.44, -54.91 76.87, -53.73 69.17 M-53.73 69.17 C-51.25 70.83, -48.77 72.48, -43.18 76.2 M-53.73 69.17 C-49.57 71.95, -45.41 74.72, -43.18 76.2 M-43.18 76.2 C-48.12 79.21, -53.05 82.21, -56 84 M-43.18 76.2 C-46.4 78.16, -49.62 80.12, -56 84 M-56 84 C-56 84, -56 84, -56 84 M-56 84 C-56 84, -56 84, -56 84" stroke="#1e1e1e" stroke-width="2" fill="none"></path></g></g><mask></mask><g stroke-linecap="round"><g transform="translate(430 318) rotate(0 -28 -42)"><path d="M0 0 C-14.68 -22.01, -29.35 -44.03, -56 -84 M0 0 C-20.05 -30.07, -40.09 -60.14, -56 -84" stroke="#1e1e1e" stroke-width="2" fill="none"></path></g><g transform="translate(430 318) rotate(0 -28 -42)"><path d="M-56 -84 L-43.18 -76.2 L-53.73 -69.17 L-56 -84" stroke="none" stroke-width="0" fill="#1e1e1e" fill-rule="evenodd"></path><path d="M-56 -84 C-52.64 -81.96, -49.28 -79.91, -43.18 -76.2 M-56 -84 C-51.41 -81.21, -46.82 -78.42, -43.18 -76.2 M-43.18 -76.2 C-45.86 -74.42, -48.54 -72.63, -53.73 -69.17 M-43.18 -76.2 C-46.07 -74.28, -48.95 -72.36, -53.73 -69.17 M-53.73 -69.17 C-54.63 -75.06, -55.53 -80.95, -56 -84 M-53.73 -69.17 C-54.49 -74.1, -55.24 -79.03, -56 -84 M-56 -84 C-56 -84, -56 -84, -56 -84 M-56 -84 C-56 -84, -56 -84, -56 -84" stroke="#1e1e1e" stroke-width="2" fill="none"></path></g></g><mask></mask><g transform="translate(45 688.44) rotate(0 49.21875 16.80000000000001)"><text x="0" y="27.0375" font-family="Cascadia, Segoe UI Emoji" font-size="28px" fill="#1e1e1e" text-anchor="start" style="white-space: pre;" direction="ltr" dominant-baseline="alphabetic">Entity</text></g><g transform="translate(45 465.84000000000015) rotate(0 49.21875 16.80000000000001)"><text x="0" y="27.0375" font-family="Cascadia, Segoe UI Emoji" font-size="28px" fill="#1e1e1e" text-anchor="start" style="white-space: pre;" direction="ltr" dominant-baseline="alphabetic">Domain</text></g><g transform="translate(437 500.84000000000015) rotate(0 49.21875 16.80000000000001)"><text x="0" y="27.0375" font-family="Cascadia, Segoe UI Emoji" font-size="28px" fill="#1e1e1e" text-anchor="start" style="white-space: pre;" direction="ltr" dominant-baseline="alphabetic">Domain</text></g><g transform="translate(437 724.84) rotate(0 49.21875 16.80000000000001)"><text x="0" y="27.0375" font-family="Cascadia, Segoe UI Emoji" font-size="28px" fill="#1e1e1e" text-anchor="start" style="white-space: pre;" direction="ltr" dominant-baseline="alphabetic">Entity</text></g></svg>